# Blender v2.92.0 OBJ File: 'untitled.blend'
# www.blender.org
mtllib bottle.mtl
o homedecor_bottle
v -0.020000 -0.061279 -0.018000
v -0.025000 -0.061279 -0.009000
v 0.000000 -0.061279 0.000000
v -0.025000 -0.085058 -0.009000
v -0.020000 -0.085058 -0.018000
v -0.011000 -0.085058 -0.024000
v -0.011000 -0.061279 -0.024000
v -0.001000 -0.061279 -0.027000
v -0.001000 -0.085058 -0.027000
v 0.009000 -0.061279 -0.025000
v 0.009000 -0.085058 -0.025000
v 0.018000 -0.061279 -0.020000
v 0.018000 -0.085058 -0.020000
v 0.024000 -0.085058 -0.011000
v 0.024000 -0.061279 -0.011000
v 0.027000 -0.061279 -0.001000
v 0.027000 -0.085058 -0.001000
v 0.025000 -0.061279 0.009000
v 0.025000 -0.085058 0.009000
v 0.020000 -0.061279 0.018000
v 0.020000 -0.085058 0.018000
v 0.011000 -0.061279 0.024000
v 0.011000 -0.085059 0.024000
v 0.001000 -0.061279 0.027000
v 0.001000 -0.085059 0.027000
v -0.009000 -0.085059 0.025000
v -0.009000 -0.061279 0.025000
v -0.018000 -0.061279 0.020000
v -0.018000 -0.085058 0.020000
v -0.024000 -0.061279 0.011000
v -0.072132 -0.501189 -0.031781
v -0.056947 -0.501189 -0.055091
v 0.000000 -0.500000 -0.006622
v -0.027000 -0.085058 0.001000
v -0.027000 -0.061279 0.001000
v -0.024000 -0.085058 0.011000
v -0.080446 -0.267162 -0.028854
v -0.078180 -0.180515 -0.028938
v -0.061184 -0.180514 -0.057876
v -0.063450 -0.267162 -0.056599
v -0.035124 -0.180514 -0.077554
v -0.036257 -0.267162 -0.076575
v -0.003399 -0.180514 -0.084499
v -0.003399 -0.267162 -0.084343
v 0.028326 -0.180514 -0.079869
v 0.029459 -0.267162 -0.078795
v 0.056652 -0.180514 -0.062506
v 0.057785 -0.267162 -0.062148
v 0.078180 -0.267162 -0.035513
v 0.075914 -0.180515 -0.035883
v 0.086111 -0.267162 -0.003329
v 0.082712 -0.180515 -0.003473
v 0.078180 -0.180515 0.028938
v 0.080446 -0.267162 0.028854
v 0.063450 -0.267162 0.056599
v 0.061184 -0.180515 0.057876
v 0.035124 -0.180515 0.077554
v 0.036257 -0.267162 0.076575
v 0.003399 -0.180515 0.084499
v 0.003399 -0.267162 0.084343
v -0.028326 -0.180515 0.079869
v -0.029459 -0.267162 0.078794
v -0.057785 -0.267162 0.062148
v -0.056652 -0.180515 0.062506
v -0.075914 -0.180515 0.035883
v -0.086111 -0.267162 0.003329
v -0.082712 -0.180515 0.003473
v -0.078180 -0.267162 0.035513
v -0.030000 -0.113000 -0.011000
v -0.023000 -0.113000 -0.022000
v -0.013000 -0.113000 -0.029000
v -0.001000 -0.113000 -0.032000
v 0.011000 -0.113000 -0.030000
v 0.021000 -0.113000 -0.023000
v 0.032962 -0.113000 -0.013000
v 0.036514 -0.113000 -0.001000
v 0.034146 -0.113000 0.011000
v 0.025859 -0.113000 0.022000
v 0.014021 -0.113000 0.029000
v -0.000185 -0.113000 0.032000
v -0.014390 -0.113000 0.030000
v -0.026229 -0.113000 0.023000
v -0.030320 -0.113000 0.013000
v -0.032000 -0.113000 0.001000
v -0.078297 -0.417690 -0.028669
v -0.061755 -0.417690 -0.053984
v -0.032903 -0.501189 -0.071407
v -0.035289 -0.417690 -0.072210
v -0.003796 -0.501189 -0.078400
v -0.003308 -0.417690 -0.079298
v 0.028672 -0.417690 -0.074235
v 0.026575 -0.501189 -0.066020
v 0.051885 -0.501189 -0.052035
v 0.056241 -0.417690 -0.059047
v 0.076091 -0.417690 -0.034745
v 0.069602 -0.501189 -0.029891
v 0.083811 -0.417690 -0.005380
v 0.077194 -0.501189 -0.003086
v 0.078297 -0.417690 0.023985
v 0.072132 -0.501189 0.024885
v 0.061755 -0.417690 0.049299
v 0.056947 -0.501189 0.040477
v 0.035289 -0.417690 0.067525
v 0.032903 -0.501189 0.064511
v 0.003308 -0.417690 0.074613
v 0.003796 -0.501189 0.071503
v -0.028672 -0.417690 0.069551
v -0.026575 -0.501189 0.066842
v -0.051885 -0.501189 0.052856
v -0.056241 -0.417690 0.054362
v -0.069602 -0.501189 0.030713
v -0.077194 -0.501189 -0.003811
v -0.083811 -0.417690 0.000695
v -0.076091 -0.417690 0.030060
v -0.041899 -0.360000 -0.042147
v -0.024257 -0.360000 -0.055379
v -0.002205 -0.360000 -0.060524
v 0.019847 -0.360000 -0.056849
v 0.038958 -0.360000 -0.045823
v 0.052189 -0.360000 -0.027446
v 0.057335 -0.360000 -0.005394
v 0.053659 -0.360000 0.016658
v 0.041899 -0.360000 0.035769
v 0.024257 -0.360000 0.049000
v 0.002205 -0.360000 0.054146
v -0.019847 -0.360000 0.050470
v -0.038958 -0.360000 0.039444
v -0.052189 -0.360000 0.021068
v -0.057335 -0.360000 -0.000984
v -0.053660 -0.360000 -0.023036
vt 0.673000 0.912000
vt 0.657000 0.915000
vt 0.657000 0.875000
vt 0.327684 0.874904
vt 0.327684 0.968923
vt 0.304190 0.968923
vt 0.304190 0.874904
vt 0.280697 0.874904
vt 0.280697 0.968923
vt 0.257203 0.968923
vt 0.257203 0.874904
vt 0.233710 0.968923
vt 0.233710 0.874904
vt 0.210216 0.968923
vt 0.210216 0.874904
vt 0.187841 0.874904
vt 0.187841 0.968923
vt 0.164348 0.968923
vt 0.164348 0.874904
vt 0.140854 0.968923
vt 0.140854 0.874904
vt 0.117361 0.968923
vt 0.117361 0.874904
vt 0.093867 0.968923
vt 0.093867 0.874904
vt 0.070374 0.968923
vt 0.070374 0.874904
vt 0.047999 0.874904
vt 0.047999 0.968923
vt 0.024506 0.968923
vt 0.024506 0.874904
vt 0.001012 0.968923
vt 0.492000 0.965000
vt 0.457000 0.958000
vt 0.491000 0.875000
vt 0.350058 0.874904
vt 0.350058 0.968923
vt 0.373552 0.874904
vt 0.373552 0.968923
vt 0.599031 0.405144
vt 0.599031 0.655725
vt 0.557083 0.655725
vt 0.557083 0.405144
vt 0.514111 0.655725
vt 0.514111 0.405144
vt 0.471139 0.655725
vt 0.471139 0.405144
vt 0.429191 0.655725
vt 0.429191 0.405144
vt 0.386219 0.655725
vt 0.386219 0.405144
vt 0.343248 0.405144
vt 0.343248 0.655725
vt 0.301299 0.405144
vt 0.301299 0.655725
vt 0.258328 0.655725
vt 0.258328 0.405144
vt 0.215356 0.405144
vt 0.215356 0.655725
vt 0.173407 0.655725
vt 0.173407 0.405144
vt 0.130436 0.655725
vt 0.130436 0.405144
vt 0.087464 0.655725
vt 0.087464 0.405144
vt 0.045516 0.405144
vt 0.045516 0.655725
vt 0.002544 0.655725
vt 0.642003 0.405144
vt 0.642003 0.655725
vt 0.684974 0.405144
vt 0.684974 0.655725
vt 0.599031 0.747733
vt 0.557083 0.747733
vt 0.514111 0.747733
vt 0.471139 0.747733
vt 0.429191 0.747733
vt 0.386219 0.747733
vt 0.343248 0.747733
vt 0.301299 0.747733
vt 0.258328 0.747733
vt 0.215356 0.747733
vt 0.173407 0.747733
vt 0.130436 0.747733
vt 0.087464 0.747733
vt 0.045516 0.747733
vt 0.002544 0.747733
vt 0.642003 0.747733
vt 0.684974 0.747733
vt 0.327684 0.781256
vt 0.304190 0.781256
vt 0.280697 0.781256
vt 0.257203 0.781256
vt 0.233710 0.781256
vt 0.210216 0.781256
vt 0.187841 0.781256
vt 0.164348 0.781256
vt 0.140854 0.781256
vt 0.117361 0.781256
vt 0.093867 0.781256
vt 0.070374 0.781256
vt 0.047999 0.781256
vt 0.024506 0.781256
vt 0.001012 0.781256
vt 0.350058 0.781256
vt 0.373552 0.781256
vt 0.599031 0.003347
vt 0.599031 0.046234
vt 0.557083 0.046234
vt 0.557083 0.003347
vt 0.514111 0.003347
vt 0.514111 0.046234
vt 0.471139 0.003347
vt 0.471139 0.046234
vt 0.429191 0.046234
vt 0.429191 0.003347
vt 0.386219 0.003347
vt 0.386219 0.046234
vt 0.343248 0.046234
vt 0.343248 0.003347
vt 0.301299 0.046234
vt 0.301299 0.003347
vt 0.258328 0.046234
vt 0.258328 0.003347
vt 0.215356 0.046234
vt 0.215356 0.003347
vt 0.173407 0.046234
vt 0.173407 0.003347
vt 0.130436 0.046234
vt 0.130436 0.003347
vt 0.087464 0.046234
vt 0.087464 0.003347
vt 0.045516 0.003347
vt 0.045516 0.046234
vt 0.002544 0.003347
vt 0.642003 0.003347
vt 0.642003 0.046234
vt 0.684974 0.003347
vt 0.684974 0.046234
vt 0.557083 0.301510
vt 0.514111 0.301510
vt 0.471139 0.301510
vt 0.429191 0.301510
vt 0.386219 0.301510
vt 0.343248 0.301510
vt 0.301299 0.301510
vt 0.258328 0.301510
vt 0.215356 0.301510
vt 0.173407 0.301510
vt 0.130436 0.301510
vt 0.087464 0.301510
vt 0.045516 0.301510
vt 0.002544 0.301510
vt 0.642003 0.301510
vt 0.599031 0.301510
vt 0.684974 0.301510
vt 0.002544 0.405144
vt 0.001012 0.874904
vt 0.002544 0.046234
vt 0.642000 0.912000
vt 0.629000 0.904000
vt 0.621000 0.891000
vt 0.617000 0.876000
vt 0.620000 0.860000
vt 0.629000 0.847000
vt 0.642000 0.839000
vt 0.657000 0.836000
vt 0.672000 0.838000
vt 0.685000 0.847000
vt 0.694000 0.860000
vt 0.697000 0.875000
vt 0.694000 0.890000
vt 0.685000 0.903000
vt 0.428000 0.939000
vt 0.409000 0.910000
vt 0.402000 0.875000
vt 0.408000 0.841000
vt 0.428000 0.812000
vt 0.457000 0.792000
vt 0.491000 0.785000
vt 0.526000 0.792000
vt 0.555000 0.812000
vt 0.574000 0.841000
vt 0.581000 0.875000
vt 0.575000 0.909000
vt 0.555000 0.938000
vt 0.526000 0.958000
vn -0.5537 0.6577 -0.5106
vn -0.6934 0.6740 -0.2549
vn 0.0000 1.0000 0.0000
vn -0.9353 0.0933 -0.3412
vn -0.7306 0.0935 -0.6763
vn -0.4256 0.0939 -0.9000
vn -0.3139 0.6753 -0.6673
vn -0.0355 0.6565 -0.7535
vn -0.0443 0.0935 -0.9946
vn 0.2549 0.6740 -0.6934
vn 0.3412 0.0933 -0.9353
vn 0.5106 0.6577 -0.5537
vn 0.6803 0.0847 -0.7280
vn 0.8857 0.1265 -0.4466
vn 0.6673 0.6753 -0.3139
vn 0.7535 0.6565 -0.0355
vn 0.9847 0.1677 -0.0473
vn 0.6934 0.6740 0.2549
vn 0.9255 0.1618 0.3423
vn 0.5537 0.6577 0.5106
vn 0.7194 0.1364 0.6810
vn 0.3139 0.6753 0.6673
vn 0.4187 0.1078 0.9017
vn 0.0355 0.6565 0.7535
vn 0.0441 0.0967 0.9943
vn -0.3332 0.1094 0.9365
vn -0.2549 0.6740 0.6934
vn -0.5106 0.6577 0.5537
vn -0.6742 0.1276 0.7274
vn -0.6673 0.6753 0.3139
vn -0.6700 -0.6902 -0.2731
vn -0.5186 -0.6820 -0.5156
vn -0.0004 -1.0000 0.0010
vn -0.9940 0.1021 0.0372
vn -0.7535 0.6565 0.0355
vn -0.8981 0.1164 0.4241
vn -0.9299 -0.1266 -0.3453
vn -0.8944 0.3198 -0.3126
vn -0.7053 0.3171 -0.6340
vn -0.7335 -0.1280 -0.6674
vn -0.3944 0.3129 -0.8640
vn -0.4173 -0.1267 -0.8999
vn -0.0350 0.3130 -0.9491
vn -0.0336 -0.1258 -0.9915
vn 0.3242 0.3131 -0.8927
vn 0.3420 -0.1258 -0.9312
vn 0.6410 0.3189 -0.6981
vn 0.6594 -0.1249 -0.7413
vn 0.8966 -0.1281 -0.4237
vn 0.8633 0.3141 -0.3950
vn 0.9908 -0.1314 -0.0312
vn 0.9511 0.3071 -0.0319
vn 0.8961 0.3074 0.3200
vn 0.9261 -0.1380 0.3511
vn 0.7303 -0.1474 0.6670
vn 0.7059 0.3110 0.6363
vn 0.3945 0.3120 0.8643
vn 0.4143 -0.1547 0.8968
vn 0.0353 0.3118 0.9495
vn 0.0334 -0.1562 0.9872
vn -0.3209 0.3085 0.8954
vn -0.3386 -0.1561 0.9279
vn -0.6580 -0.1486 0.7382
vn -0.6462 0.3088 0.6978
vn -0.8665 0.3157 0.3867
vn -0.9912 -0.1276 0.0348
vn -0.9465 0.3211 0.0322
vn -0.8938 -0.1378 0.4268
vn -0.8512 0.4163 -0.3196
vn -0.6546 0.4205 -0.6281
vn -0.3764 0.4225 -0.8245
vn -0.0339 0.4211 -0.9064
vn 0.3395 0.4191 -0.8420
vn 0.5765 0.4017 -0.7115
vn 0.7451 0.4570 -0.4858
vn 0.8864 0.4615 -0.0349
vn 0.8217 0.4467 0.3538
vn 0.6110 0.4267 0.6667
vn 0.3399 0.4188 0.8420
vn 0.0241 0.4204 0.9070
vn -0.3058 0.4349 0.8469
vn -0.6885 0.4536 0.5658
vn -0.8693 0.4187 0.2626
vn -0.9140 0.4056 -0.0114
vn -0.9169 0.1712 -0.3606
vn -0.7118 0.1666 -0.6823
vn -0.2945 -0.6814 -0.6700
vn -0.4010 0.1558 -0.9027
vn 0.0369 -0.6670 -0.7441
vn -0.0304 0.1501 -0.9882
vn 0.3374 0.1269 -0.9327
vn 0.2929 -0.7350 -0.6115
vn 0.4558 -0.7072 -0.5405
vn 0.6398 0.1284 -0.7577
vn 0.8830 0.1513 -0.4443
vn 0.6327 -0.7040 -0.3225
vn 0.9854 0.1658 -0.0380
vn 0.7197 -0.6936 -0.0320
vn 0.9168 0.1687 0.3620
vn 0.6527 -0.6844 0.3248
vn 0.7053 0.1407 0.6948
vn 0.4670 -0.7421 0.4808
vn 0.4092 0.1364 0.9022
vn 0.3599 -0.6715 0.6477
vn 0.0308 0.1476 0.9886
vn 0.0307 -0.6844 0.7284
vn -0.3236 0.1517 0.9339
vn -0.2329 -0.6888 0.6865
vn -0.4657 -0.6880 0.5566
vn -0.6383 0.1614 0.7527
vn -0.6526 -0.6879 0.3175
vn -0.7165 -0.6975 0.0118
vn -0.9850 0.1673 0.0408
vn -0.8829 0.1667 0.4389
vn -0.7307 0.0498 -0.6808
vn -0.4169 0.0377 -0.9081
vn -0.0310 0.0331 -0.9990
vn 0.3334 0.0361 -0.9421
vn 0.6627 0.0446 -0.7475
vn 0.9041 0.0572 -0.4234
vn 0.9971 0.0658 -0.0370
vn 0.9340 0.0594 0.3524
vn 0.7344 0.0438 0.6772
vn 0.4178 0.0258 0.9081
vn 0.0305 0.0152 0.9994
vn -0.3357 0.0187 0.9417
vn -0.6673 0.0329 0.7440
vn -0.9061 0.0513 0.4199
vn -0.9973 0.0659 0.0303
vn -0.9311 0.0642 -0.3590
usemtl Default_OBJ
s 1
f 1/1/1 2/2/2 3/3/3
f 4/4/4 2/5/2 1/6/1
f 5/7/5 1/6/1 6/8/6
f 6/8/6 7/9/7 8/10/8
f 9/11/9 8/10/8 10/12/10
f 11/13/11 10/12/10 12/14/12
f 13/15/13 12/14/12 14/16/14
f 14/16/14 15/17/15 16/18/16
f 17/19/17 16/18/16 18/20/18
f 19/21/19 18/20/18 20/22/20
f 21/23/21 20/22/20 22/24/22
f 23/25/23 22/24/22 24/26/24
f 25/27/25 24/26/24 26/28/26
f 26/28/26 27/29/27 28/30/28
f 29/31/29 28/30/28 30/32/30
f 31/33/31 32/34/32 33/35/33
f 34/36/34 35/37/35 2/5/2
f 36/38/36 30/39/30 35/37/35
f 37/40/37 38/41/38 39/42/39
f 40/43/40 39/42/39 41/44/41
f 42/45/42 41/44/41 43/46/43
f 44/47/44 43/46/43 45/48/45
f 46/49/46 45/48/45 47/50/47
f 48/51/48 47/50/47 49/52/49
f 49/52/49 50/53/50 51/54/51
f 51/54/51 52/55/52 53/56/53
f 54/57/54 53/56/53 55/58/55
f 55/58/55 56/59/56 57/60/57
f 58/61/58 57/60/57 59/62/59
f 60/63/60 59/62/59 61/64/61
f 62/65/62 61/64/61 63/66/63
f 63/66/63 64/67/64 65/68/65
f 66/69/66 67/70/67 37/40/37
f 68/71/68 65/72/65 67/70/67
f 38/41/38 69/73/69 39/42/39
f 39/42/39 70/74/70 41/44/41
f 41/44/41 71/75/71 43/46/43
f 43/46/43 72/76/72 73/77/73
f 45/48/45 73/77/73 74/78/74
f 47/50/47 74/78/74 50/53/50
f 50/53/50 75/79/75 76/80/76
f 52/55/52 76/80/76 77/81/77
f 53/56/53 77/81/77 78/82/78
f 56/59/56 78/82/78 79/83/79
f 57/60/57 79/83/79 59/62/59
f 59/62/59 80/84/80 61/64/61
f 61/64/61 81/85/81 64/67/64
f 64/67/64 82/86/82 83/87/83
f 67/70/67 84/88/84 69/73/69
f 65/72/65 83/89/83 84/88/84
f 69/90/69 4/4/4 5/7/5
f 70/91/70 5/7/5 6/8/6
f 71/92/71 6/8/6 9/11/9
f 72/93/72 9/11/9 11/13/11
f 73/94/73 11/13/11 13/15/13
f 74/95/74 13/15/13 14/16/14
f 75/96/75 14/16/14 17/19/17
f 76/97/76 17/19/17 19/21/19
f 77/98/77 19/21/19 21/23/21
f 78/99/78 21/23/21 23/25/23
f 79/100/79 23/25/23 25/27/25
f 80/101/80 25/27/25 26/28/26
f 81/102/81 26/28/26 29/31/29
f 82/103/82 29/31/29 83/104/83
f 84/105/84 34/36/34 4/4/4
f 83/106/83 36/38/36 34/36/34
f 31/107/31 85/108/85 86/109/86
f 32/110/32 86/109/86 87/111/87
f 87/111/87 88/112/88 89/113/89
f 89/113/89 90/114/90 91/115/91
f 92/116/92 91/115/91 93/117/93
f 93/117/93 94/118/94 95/119/95
f 96/120/96 95/119/95 97/121/97
f 98/122/98 97/121/97 99/123/99
f 100/124/100 99/123/99 101/125/101
f 102/126/102 101/125/101 103/127/103
f 104/128/104 103/127/103 105/129/105
f 106/130/106 105/129/105 107/131/107
f 108/132/108 107/131/107 109/133/109
f 109/133/109 110/134/110 111/135/111
f 112/136/112 113/137/113 31/107/31
f 111/138/111 114/139/114 112/136/112
f 86/109/86 115/140/115 88/112/88
f 88/112/88 116/141/116 90/114/90
f 90/114/90 117/142/117 118/143/118
f 91/115/91 118/143/118 119/144/119
f 94/118/94 119/144/119 120/145/120
f 95/119/95 120/145/120 121/146/121
f 97/121/97 121/146/121 122/147/122
f 99/123/99 122/147/122 123/148/123
f 101/125/101 123/148/123 124/149/124
f 103/127/103 124/149/124 125/150/125
f 105/129/105 125/150/125 126/151/126
f 107/131/107 126/151/126 127/152/127
f 110/134/110 127/152/127 128/153/128
f 113/137/113 129/154/129 130/155/130
f 114/139/114 128/156/128 129/154/129
f 130/155/130 37/40/37 40/43/40
f 115/140/115 40/43/40 116/141/116
f 116/141/116 42/45/42 44/47/44
f 117/142/117 44/47/44 46/49/46
f 118/143/118 46/49/46 119/144/119
f 119/144/119 48/51/48 49/52/49
f 120/145/120 49/52/49 51/54/51
f 121/146/121 51/54/51 122/147/122
f 122/147/122 54/57/54 55/58/55
f 123/148/123 55/58/55 58/61/58
f 124/149/124 58/61/58 125/150/125
f 125/150/125 60/63/60 62/65/62
f 126/151/126 62/65/62 63/66/63
f 127/152/127 63/66/63 128/153/128
f 129/154/129 66/69/66 37/40/37
f 128/156/128 68/71/68 66/69/66
f 85/108/85 130/155/130 86/109/86
f 80/84/80 81/85/81 61/64/61
f 12/14/12 15/17/15 14/16/14
f 63/66/63 68/157/68 128/153/128
f 74/78/74 75/79/75 50/53/50
f 50/53/50 52/55/52 51/54/51
f 91/115/91 94/118/94 93/117/93
f 46/49/46 48/51/48 119/144/119
f 5/7/5 4/4/4 1/6/1
f 9/11/9 6/8/6 8/10/8
f 11/13/11 9/11/9 10/12/10
f 13/15/13 11/13/11 12/14/12
f 17/19/17 14/16/14 16/18/16
f 19/21/19 17/19/17 18/20/18
f 21/23/21 19/21/19 20/22/20
f 23/25/23 21/23/21 22/24/22
f 25/27/25 23/25/23 24/26/24
f 29/31/29 26/28/26 28/30/28
f 36/158/36 29/31/29 30/32/30
f 4/4/4 34/36/34 2/5/2
f 34/36/34 36/38/36 35/37/35
f 40/43/40 37/40/37 39/42/39
f 42/45/42 40/43/40 41/44/41
f 44/47/44 42/45/42 43/46/43
f 46/49/46 44/47/44 45/48/45
f 48/51/48 46/49/46 47/50/47
f 47/50/47 50/53/50 49/52/49
f 79/83/79 80/84/80 59/62/59
f 54/57/54 51/54/51 53/56/53
f 116/141/116 117/142/117 90/114/90
f 58/61/58 55/58/55 57/60/57
f 60/63/60 58/61/58 59/62/59
f 62/65/62 60/63/60 61/64/61
f 68/157/68 63/66/63 65/68/65
f 66/69/66 68/71/68 67/70/67
f 29/31/29 36/158/36 83/104/83
f 45/48/45 43/46/43 73/77/73
f 47/50/47 45/48/45 74/78/74
f 52/55/52 50/53/50 76/80/76
f 53/56/53 52/55/52 77/81/77
f 56/59/56 53/56/53 78/82/78
f 57/60/57 56/59/56 79/83/79
f 65/68/65 64/67/64 83/87/83
f 38/41/38 67/70/67 69/73/69
f 67/70/67 65/72/65 84/88/84
f 70/91/70 69/90/69 5/7/5
f 71/92/71 70/91/70 6/8/6
f 72/93/72 71/92/71 9/11/9
f 73/94/73 72/93/72 11/13/11
f 74/95/74 73/94/73 13/15/13
f 75/96/75 74/95/74 14/16/14
f 76/97/76 75/96/75 17/19/17
f 77/98/77 76/97/76 19/21/19
f 78/99/78 77/98/77 21/23/21
f 79/100/79 78/99/78 23/25/23
f 80/101/80 79/100/79 25/27/25
f 81/102/81 80/101/80 26/28/26
f 82/103/82 81/102/81 29/31/29
f 69/90/69 84/105/84 4/4/4
f 84/105/84 83/106/83 34/36/34
f 32/110/32 31/107/31 86/109/86
f 92/116/92 89/113/89 91/115/91
f 96/120/96 93/117/93 95/119/95
f 98/122/98 96/120/96 97/121/97
f 100/124/100 98/122/98 99/123/99
f 102/126/102 100/124/100 101/125/101
f 104/128/104 102/126/102 103/127/103
f 106/130/106 104/128/104 105/129/105
f 108/132/108 106/130/106 107/131/107
f 107/131/107 110/134/110 109/133/109
f 110/134/110 114/159/114 111/135/111
f 113/137/113 85/108/85 31/107/31
f 114/139/114 113/137/113 112/136/112
f 91/115/91 90/114/90 118/143/118
f 94/118/94 91/115/91 119/144/119
f 95/119/95 94/118/94 120/145/120
f 97/121/97 95/119/95 121/146/121
f 99/123/99 97/121/97 122/147/122
f 101/125/101 99/123/99 123/148/123
f 103/127/103 101/125/101 124/149/124
f 105/129/105 103/127/103 125/150/125
f 107/131/107 105/129/105 126/151/126
f 110/134/110 107/131/107 127/152/127
f 114/159/114 110/134/110 128/153/128
f 85/108/85 113/137/113 130/155/130
f 113/137/113 114/139/114 129/154/129
f 115/140/115 130/155/130 40/43/40
f 117/142/117 116/141/116 44/47/44
f 118/143/118 117/142/117 46/49/46
f 120/145/120 119/144/119 49/52/49
f 121/146/121 120/145/120 51/54/51
f 123/148/123 122/147/122 55/58/55
f 124/149/124 123/148/123 58/61/58
f 130/155/130 115/140/115 86/109/86
f 126/151/126 125/150/125 62/65/62
f 127/152/127 126/151/126 63/66/63
f 130/155/130 129/154/129 37/40/37
f 129/154/129 128/156/128 66/69/66
f 1/6/1 7/9/7 6/8/6
f 70/74/70 71/75/71 41/44/41
f 86/109/86 88/112/88 87/111/87
f 67/70/67 38/41/38 37/40/37
f 71/75/71 72/76/72 43/46/43
f 51/54/51 54/57/54 122/147/122
f 115/140/115 116/141/116 88/112/88
f 69/73/69 70/74/70 39/42/39
f 81/85/81 82/86/82 64/67/64
f 88/112/88 90/114/90 89/113/89
f 40/43/40 42/45/42 116/141/116
f 58/61/58 60/63/60 125/150/125
f 24/26/24 27/29/27 26/28/26
f 53/56/53 56/59/56 55/58/55
f 61/64/61 64/67/64 63/66/63
f 2/2/2 35/160/35 3/3/3
f 35/160/35 30/161/30 3/3/3
f 30/161/30 28/162/28 3/3/3
f 28/162/28 27/163/27 3/3/3
f 27/163/27 24/164/24 3/3/3
f 24/164/24 22/165/22 3/3/3
f 22/165/22 20/166/20 3/3/3
f 20/166/20 18/167/18 3/3/3
f 18/167/18 16/168/16 3/3/3
f 16/168/16 15/169/15 3/3/3
f 15/169/15 12/170/12 3/3/3
f 12/170/12 10/171/10 3/3/3
f 10/171/10 8/172/8 3/3/3
f 8/172/8 7/173/7 3/3/3
f 7/173/7 1/1/1 3/3/3
f 32/34/32 87/174/87 33/35/33
f 87/174/87 89/175/89 33/35/33
f 89/175/89 92/176/92 33/35/33
f 92/176/92 93/177/93 33/35/33
f 93/177/93 96/178/96 33/35/33
f 96/178/96 98/179/98 33/35/33
f 98/179/98 100/180/100 33/35/33
f 100/180/100 102/181/102 33/35/33
f 102/181/102 104/182/104 33/35/33
f 104/182/104 106/183/106 33/35/33
f 106/183/106 108/184/108 33/35/33
f 108/184/108 109/185/109 33/35/33
f 109/185/109 111/186/111 33/35/33
f 111/186/111 112/187/112 33/35/33
f 112/187/112 31/33/31 33/35/33
